<svg width="194" height="229" viewBox="0 0 194 229" fill="none" xmlns="http://www.w3.org/2000/svg">
<path opacity="0.4" fill-rule="evenodd" clip-rule="evenodd" d="M8.04288 198.392L58.5477 152.967C68.2562 144.23 76.1734 136.356 82.3222 129.343L82.3298 129.334L82.3375 129.325C88.6001 122.292 93.4544 115.854 96.9433 110.008L96.9524 109.992L96.9616 109.977C100.567 104.096 102.963 98.7515 104.236 93.933L104.241 93.9146L104.246 93.8963C105.647 88.8532 106.334 84.0458 106.334 79.4648C106.334 73.8038 105.499 68.7338 103.875 64.2212C102.255 59.7228 99.8953 55.9583 96.8122 52.8752L96.7819 52.8449L96.7525 52.8138C93.7674 49.6532 90.0573 47.2094 85.5632 45.5016L85.5537 45.498L85.5442 45.4943C81.1712 43.7987 76.0335 42.9141 70.0761 42.9141C61.8008 42.9141 53.5957 44.5856 45.4419 47.9595C37.2407 51.3531 29.5927 56.0236 22.4939 61.9866L19.8787 64.1834L0.239502 33.4972L2.1826 31.797C7.05626 27.5325 12.8983 23.5112 19.6804 19.7207C26.5945 15.8133 34.28 12.423 42.7255 9.5407C51.192 6.55356 60.2357 4.22047 69.8512 2.53527L69.8563 2.53437C79.6082 0.842731 89.7901 0 100.398 0C114.972 0 128.005 1.63508 139.465 4.95229C150.865 8.25231 160.579 12.8344 168.539 18.7513C176.584 24.6595 182.718 31.6938 186.857 39.8639C191.083 48.0117 193.193 56.7834 193.193 66.1348C193.193 75.393 191.082 84.6492 186.923 93.8808C182.758 103.125 176.451 112.228 168.078 121.201C159.791 130.186 149.36 139.016 136.824 147.702C127.785 153.966 117.638 160.087 106.391 166.069L134.848 163.77H193.926V227.191H11.5297L8.04288 228.354V227.191H4.38618L8.04288 223.535V198.392ZM190.926 224.191V166.77H134.969L91.4628 170.285C93.9202 169.092 96.3312 167.894 98.6955 166.691C112.398 159.717 124.538 152.565 135.115 145.236C147.517 136.643 157.771 127.951 165.877 119.162C174.08 110.373 180.184 101.535 184.187 92.6484C188.191 83.7617 190.193 74.9238 190.193 66.1348C190.193 57.248 188.191 48.9473 184.187 41.2324C180.281 33.5176 174.471 26.8281 166.756 21.1641C159.139 15.5 149.764 11.0566 138.631 7.83398C127.498 4.61133 114.754 3 100.398 3C89.9491 3 79.9394 3.83008 70.369 5.49023C60.8964 7.15039 52.0097 9.44531 43.7089 12.375C35.4081 15.207 27.8886 18.5273 21.1503 22.3359C14.5097 26.0469 8.84561 29.9531 4.15811 34.0547L20.5644 59.6895C21.3384 59.0393 22.119 58.4038 22.9061 57.7831C29.567 52.5301 36.6966 48.3316 44.2948 45.1875C52.7909 41.6719 61.3847 39.9141 70.0761 39.9141C76.3261 39.9141 81.8437 40.8418 86.6288 42.6973C91.5116 44.5527 95.6132 47.2383 98.9335 50.7539C102.351 54.1719 104.939 58.3223 106.697 63.2051C108.455 68.0879 109.334 73.5078 109.334 79.4648C109.334 84.3477 108.601 89.4258 107.137 94.6992C105.769 99.875 103.23 105.49 99.5194 111.545C95.9062 117.6 90.9257 124.191 84.578 131.32C78.328 138.449 70.3202 146.408 60.5546 155.197L11.0429 199.729V224.191L11.9218 223.898L11.6288 224.191H190.926Z" fill="#828282"/>
</svg>
