<svg width="71" height="70" viewBox="0 0 71 70" fill="none" xmlns="http://www.w3.org/2000/svg">
<g filter="url(#filter0_d_2_815)">
<circle cx="35.4002" cy="22.1051" r="16.7999" fill="#8CC5F9"/>
</g>
<path d="M35.4001 5.30518C26.1216 5.30518 18.6001 12.8267 18.6001 22.1052C18.6001 31.3837 26.1216 38.9052 35.4001 38.9052C44.6786 38.9052 52.2001 31.3837 52.2001 22.1052C52.2001 12.8267 44.6786 5.30518 35.4001 5.30518ZM42.2339 19.0672C42.2409 19.2107 42.2426 19.3542 42.2426 19.4942C42.2426 23.8692 38.9159 28.9109 32.8294 28.9109C31.0309 28.9139 29.2698 28.3974 27.7578 27.4234C28.0151 27.4549 28.2793 27.4672 28.5471 27.4672C30.0976 27.4672 31.5239 26.9404 32.6561 26.0514C31.9661 26.0379 31.2975 25.8094 30.7435 25.3978C30.1896 24.9863 29.7778 24.4121 29.5656 23.7554C30.0611 23.8497 30.5716 23.8299 31.0583 23.6977C30.3094 23.5462 29.6359 23.1404 29.1521 22.5491C28.6682 21.9577 28.4038 21.2173 28.4036 20.4532V20.4129C28.8498 20.6597 29.3608 20.8102 29.9033 20.8277C29.2012 20.3603 28.7042 19.6424 28.5139 18.8207C28.3236 17.999 28.4544 17.1356 28.8796 16.4072C29.7108 17.4292 30.7473 18.2652 31.9221 18.8612C33.0969 19.4572 34.3837 19.7998 35.6994 19.8669C35.5321 19.157 35.6041 18.4116 35.9041 17.7468C36.2042 17.082 36.7154 16.5349 37.3585 16.1906C38.0015 15.8464 38.7403 15.7242 39.4599 15.8431C40.1796 15.962 40.8397 16.3153 41.3379 16.8482C42.0784 16.7017 42.7886 16.43 43.4379 16.0449C43.191 16.8117 42.6743 17.4627 41.9836 17.8772C42.6396 17.7982 43.2801 17.6218 43.8841 17.3539C43.4405 18.0187 42.8816 18.5989 42.2339 19.0672Z" fill="white"/>
<defs>
<filter id="filter0_d_2_815" x="0.60022" y="0.305176" width="69.5999" height="69.5999" filterUnits="userSpaceOnUse" color-interpolation-filters="sRGB">
<feFlood flood-opacity="0" result="BackgroundImageFix"/>
<feColorMatrix in="SourceAlpha" type="matrix" values="0 0 0 0 0 0 0 0 0 0 0 0 0 0 0 0 0 0 127 0" result="hardAlpha"/>
<feOffset dy="13"/>
<feGaussianBlur stdDeviation="9"/>
<feColorMatrix type="matrix" values="0 0 0 0 0.0658854 0 0 0 0 0.0730469 0 0 0 0 0.1375 0 0 0 0.08 0"/>
<feBlend mode="normal" in2="BackgroundImageFix" result="effect1_dropShadow_2_815"/>
<feBlend mode="normal" in="SourceGraphic" in2="effect1_dropShadow_2_815" result="shape"/>
</filter>
</defs>
</svg>
